ISO-10303-21;
HEADER;
FILE_DESCRIPTION(('ViewDefinition [CoordinationView]'),'2;1');
FILE_NAME('','2026-03-12T11:03:06',(''),(''),'IfcOpenShell 0.8.0','IfcOpenShell 0.8.0','');
FILE_SCHEMA(('IFC4'));
ENDSEC;
DATA;
#1=IFCPROJECT('18xrxJPhL1PuroGJ7KFoBE',$,'Default Project',$,$,$,$,(#11),#6);
#2=IFCSIUNIT(*,.LENGTHUNIT.,$,.METRE.);
#3=IFCSIUNIT(*,.AREAUNIT.,.MILLI.,.SQUARE_METRE.);
#4=IFCSIUNIT(*,.VOLUMEUNIT.,.MILLI.,.CUBIC_METRE.);
#5=IFCSIUNIT(*,.PLANEANGLEUNIT.,$,.RADIAN.);
#6=IFCUNITASSIGNMENT((#2,#3,#4,#5));
#7=IFCCARTESIANPOINT((0.,0.,0.));
#8=IFCDIRECTION((0.,0.,1.));
#9=IFCDIRECTION((1.,0.,0.));
#10=IFCAXIS2PLACEMENT3D(#7,#8,#9);
#11=IFCGEOMETRICREPRESENTATIONCONTEXT($,'Model',3,1.E-05,#10,$);
#12=IFCGEOMETRICREPRESENTATIONSUBCONTEXT('Body','Model',*,*,*,*,#11,$,.MODEL_VIEW.,$);
#13=IFCPERSON($,'Unknown Author',$,$,$,$,$,$);
#14=IFCORGANIZATION($,'compas.dev',$,$,$);
#15=IFCPERSONANDORGANIZATION(#13,#14,$);
#16=IFCAPPLICATION(#14,'1.7.0','compas_ifc','compas_ifc v1.7.0');
#17=IFCOWNERHISTORY(#15,#16,$,$,$,$,$,1773309787);
#18=IFCSITE('2uBwWibEvEHxiURb_3OJHq',$,'Default Site',$,$,$,$,$,$,$,$,$,$,$);
#19=IFCRELAGGREGATES('23RukTG9r9OPv3QRXwjD2F',$,$,$,#1,(#18));
#20=IFCBUILDING('3smRrygnD9mgDg9WIlQ8yZ',$,'Default Building 1',$,$,$,$,$,$,$,$,$);
#21=IFCRELAGGREGATES('2oGH0l9NzEigjyRwtF$wcC',$,$,$,#18,(#20));
#22=IFCBUILDINGSTOREY('1pEtYr4Az1RgA1$E$Vlksn',$,'Default Storey 1',$,$,$,$,$,$,$);
#23=IFCRELAGGREGATES('1TKOBpSYX1RALy1AFDunAW',$,$,$,#20,(#22));
#24=IFCWALL('3yHr4WgZr90woE$9XYmDLN',$,'Ext_Polygon',$,$,$,#39,$,$);
#25=IFCRELCONTAINEDINSPATIALSTRUCTURE('0xiLsjQhr0g9f2PoVZGQNo',$,$,$,(#24),#22);
#26=IFCCARTESIANPOINT((0.,0.,0.));
#27=IFCCARTESIANPOINT((6.,0.,0.));
#28=IFCCARTESIANPOINT((6.,0.3,0.));
#29=IFCCARTESIANPOINT((0.,0.3,0.));
#30=IFCPOLYLINE((#26,#27,#28,#29,#26));
#31=IFCARBITRARYCLOSEDPROFILEDEF(.AREA.,$,#30);
#32=IFCCARTESIANPOINT((0.,0.,0.));
#33=IFCDIRECTION((0.,0.,1.));
#34=IFCDIRECTION((1.,0.,0.));
#35=IFCAXIS2PLACEMENT3D(#32,#33,#34);
#36=IFCDIRECTION((0.,0.,1.));
#37=IFCEXTRUDEDAREASOLID(#31,#35,#36,3.);
#38=IFCSHAPEREPRESENTATION(#12,'Body','SweptSolid',(#37));
#39=IFCPRODUCTDEFINITIONSHAPE($,$,(#38));
#40=IFCCOLUMN('09dZpEu61EFfg6MacKX9kV',$,'Ext_Circle',$,$,$,#50,$,$);
#41=IFCRELCONTAINEDINSPATIALSTRUCTURE('02vDss9sz4aRhgWg8paam$',$,$,$,(#40),#22);
#42=IFCCIRCLEPROFILEDEF(.AREA.,$,$,0.5);
#43=IFCCARTESIANPOINT((10.,0.,0.));
#44=IFCDIRECTION((0.,0.,1.));
#45=IFCDIRECTION((1.,0.,0.));
#46=IFCAXIS2PLACEMENT3D(#43,#44,#45);
#47=IFCDIRECTION((0.,0.,1.));
#48=IFCEXTRUDEDAREASOLID(#42,#46,#47,2.);
#49=IFCSHAPEREPRESENTATION(#12,'Body','SweptSolid',(#48));
#50=IFCPRODUCTDEFINITIONSHAPE($,$,(#49));
#51=IFCSLAB('3E9a$eUmv1wxt14BUAmfwS',$,'Ext_Voids',$,$,$,#71,$,$);
#52=IFCRELCONTAINEDINSPATIALSTRUCTURE('07OKGdfdTFUP3RgR9PRmOX',$,$,$,(#51),#22);
#53=IFCCARTESIANPOINT((-1.,-1.,0.));
#54=IFCCARTESIANPOINT((1.,-1.,0.));
#55=IFCCARTESIANPOINT((1.,1.,0.));
#56=IFCCARTESIANPOINT((-1.,1.,0.));
#57=IFCPOLYLINE((#53,#54,#55,#56,#53));
#58=IFCCARTESIANPOINT((-0.4,-0.4,0.));
#59=IFCCARTESIANPOINT((0.4,-0.4,0.));
#60=IFCCARTESIANPOINT((0.4,0.4,0.));
#61=IFCCARTESIANPOINT((-0.4,0.4,0.));
#62=IFCPOLYLINE((#58,#59,#60,#61,#58));
#63=IFCARBITRARYPROFILEDEFWITHVOIDS(.AREA.,$,#57,(#62));
#64=IFCCARTESIANPOINT((20.,0.,0.));
#65=IFCDIRECTION((0.,0.,1.));
#66=IFCDIRECTION((1.,0.,0.));
#67=IFCAXIS2PLACEMENT3D(#64,#65,#66);
#68=IFCDIRECTION((0.,0.,1.));
#69=IFCEXTRUDEDAREASOLID(#63,#67,#68,0.3);
#70=IFCSHAPEREPRESENTATION(#12,'Body','SweptSolid',(#69));
#71=IFCPRODUCTDEFINITIONSHAPE($,$,(#70));
#72=IFCCOLUMN('1ry43dPrXBXfc6TuAVlJJn',$,'Rev_Circle',$,$,$,#84,$,$);
#73=IFCRELCONTAINEDINSPATIALSTRUCTURE('0ttzVjazP7Sxi1YORUzwjG',$,$,$,(#72),#22);
#74=IFCCIRCLEPROFILEDEF(.AREA.,$,$,0.1);
#75=IFCCARTESIANPOINT((0.,10.,0.));
#76=IFCDIRECTION((0.,0.,1.));
#77=IFCDIRECTION((1.,0.,0.));
#78=IFCAXIS2PLACEMENT3D(#75,#76,#77);
#79=IFCCARTESIANPOINT((1.,0.,0.));
#80=IFCDIRECTION((0.,0.,1.));
#81=IFCAXIS1PLACEMENT(#79,#80);
#82=IFCREVOLVEDAREASOLID(#74,#78,#81,360.);
#83=IFCSHAPEREPRESENTATION(#12,'Body','SweptSolid',(#82));
#84=IFCPRODUCTDEFINITIONSHAPE($,$,(#83));
#85=IFCBEAM('0SxCRyaur1V8snEVfVXuOG',$,'Rev_Polygon',$,$,$,#102,$,$);
#86=IFCRELCONTAINEDINSPATIALSTRUCTURE('2PchqbhM1FsBu9GTXqYeP0',$,$,$,(#85),#22);
#87=IFCCARTESIANPOINT((0.5,-0.15,0.));
#88=IFCCARTESIANPOINT((1.2,-0.15,0.));
#89=IFCCARTESIANPOINT((1.2,0.15,0.));
#90=IFCCARTESIANPOINT((0.5,0.15,0.));
#91=IFCPOLYLINE((#87,#88,#89,#90,#87));
#92=IFCARBITRARYCLOSEDPROFILEDEF(.AREA.,$,#91);
#93=IFCCARTESIANPOINT((10.,10.,0.));
#94=IFCDIRECTION((0.,0.,1.));
#95=IFCDIRECTION((1.,0.,0.));
#96=IFCAXIS2PLACEMENT3D(#93,#94,#95);
#97=IFCCARTESIANPOINT((0.,0.,0.));
#98=IFCDIRECTION((0.,0.,1.));
#99=IFCAXIS1PLACEMENT(#97,#98);
#100=IFCREVOLVEDAREASOLID(#92,#96,#99,180.);
#101=IFCSHAPEREPRESENTATION(#12,'Body','SweptSolid',(#100));
#102=IFCPRODUCTDEFINITIONSHAPE($,$,(#101));
#103=IFCBUILDINGELEMENTPROXY('0ve3WU3l9AjB7nz5xir$7O',$,'Pipe_Solid',$,$,#116,#111,$,$);
#104=IFCRELCONTAINEDINSPATIALSTRUCTURE('2rcVI$tMP0iRyuj$2HjeFb',$,$,$,(#103),#22);
#105=IFCCARTESIANPOINT((0.,0.,0.));
#106=IFCCARTESIANPOINT((2.,0.,0.));
#107=IFCCARTESIANPOINT((2.,3.,1.));
#108=IFCPOLYLINE((#105,#106,#107));
#109=IFCSWEPTDISKSOLID(#108,0.15,$,$,$);
#110=IFCSHAPEREPRESENTATION(#12,'Body','SweptSolid',(#109));
#111=IFCPRODUCTDEFINITIONSHAPE($,$,(#110));
#112=IFCCARTESIANPOINT((0.,20.,0.));
#113=IFCDIRECTION((0.,0.,1.));
#114=IFCDIRECTION((1.,0.,0.));
#115=IFCAXIS2PLACEMENT3D(#112,#113,#114);
#116=IFCLOCALPLACEMENT($,#115);
#117=IFCBUILDINGELEMENTPROXY('1SpmZW0hD3dfVKSB0SHY$z',$,'Pipe_Hollow',$,$,#130,#125,$,$);
#118=IFCRELCONTAINEDINSPATIALSTRUCTURE('19WjER9JD0KP1VQHsxopM$',$,$,$,(#117),#22);
#119=IFCCARTESIANPOINT((0.,0.,0.));
#120=IFCCARTESIANPOINT((0.,4.,0.));
#121=IFCCARTESIANPOINT((0.,4.,2.));
#122=IFCPOLYLINE((#119,#120,#121));
#123=IFCSWEPTDISKSOLID(#122,0.25,0.1,$,$);
#124=IFCSHAPEREPRESENTATION(#12,'Body','SweptSolid',(#123));
#125=IFCPRODUCTDEFINITIONSHAPE($,$,(#124));
#126=IFCCARTESIANPOINT((10.,20.,0.));
#127=IFCDIRECTION((0.,0.,1.));
#128=IFCDIRECTION((1.,0.,0.));
#129=IFCAXIS2PLACEMENT3D(#126,#127,#128);
#130=IFCLOCALPLACEMENT($,#129);
#131=IFCBEAM('3LhREmtWH5ugM7H3w5C3u3',$,'CSG_Box',$,$,#145,#140,$,$);
#132=IFCRELCONTAINEDINSPATIALSTRUCTURE('2cAuprZCL1Lxvt$D7zt3ES',$,$,$,(#131),#22);
#133=IFCCARTESIANPOINT((-0.5,-1.,-1.5));
#134=IFCDIRECTION((0.,0.,1.));
#135=IFCDIRECTION((1.,0.,0.));
#136=IFCAXIS2PLACEMENT3D(#133,#134,#135);
#137=IFCBLOCK(#136,1.,2.,3.);
#138=IFCCSGSOLID(#137);
#139=IFCSHAPEREPRESENTATION(#12,'Body','CSG',(#138));
#140=IFCPRODUCTDEFINITIONSHAPE($,$,(#139));
#141=IFCCARTESIANPOINT((0.,30.,0.));
#142=IFCDIRECTION((0.,0.,1.));
#143=IFCDIRECTION((1.,0.,0.));
#144=IFCAXIS2PLACEMENT3D(#141,#142,#143);
#145=IFCLOCALPLACEMENT($,#144);
#146=IFCBUILDINGELEMENTPROXY('20WTfIGpb3VedY3LSFOcUz',$,'CSG_Sphere',$,$,#160,#155,$,$);
#147=IFCRELCONTAINEDINSPATIALSTRUCTURE('0eaZWScer6wRtw2jz8qs6A',$,$,$,(#146),#22);
#148=IFCCARTESIANPOINT((0.,0.,0.));
#149=IFCDIRECTION((0.,0.,1.));
#150=IFCDIRECTION((1.,0.,0.));
#151=IFCAXIS2PLACEMENT3D(#148,#149,#150);
#152=IFCSPHERE(#151,1.5);
#153=IFCCSGSOLID(#152);
#154=IFCSHAPEREPRESENTATION(#12,'Body','CSG',(#153));
#155=IFCPRODUCTDEFINITIONSHAPE($,$,(#154));
#156=IFCCARTESIANPOINT((10.,30.,0.));
#157=IFCDIRECTION((0.,0.,1.));
#158=IFCDIRECTION((1.,0.,0.));
#159=IFCAXIS2PLACEMENT3D(#156,#157,#158);
#160=IFCLOCALPLACEMENT($,#159);
#161=IFCBUILDINGELEMENTPROXY('2$ikviM6D2BRY0QXxylb0r',$,'CSG_Cone',$,$,#175,#170,$,$);
#162=IFCRELCONTAINEDINSPATIALSTRUCTURE('3dj_hzo5v0Dgw8Fw5wopzo',$,$,$,(#161),#22);
#163=IFCCARTESIANPOINT((0.,0.,0.));
#164=IFCDIRECTION((0.,0.,1.));
#165=IFCDIRECTION((1.,0.,0.));
#166=IFCAXIS2PLACEMENT3D(#163,#164,#165);
#167=IFCRIGHTCIRCULARCONE(#166,2.5,1.);
#168=IFCCSGSOLID(#167);
#169=IFCSHAPEREPRESENTATION(#12,'Body','CSG',(#168));
#170=IFCPRODUCTDEFINITIONSHAPE($,$,(#169));
#171=IFCCARTESIANPOINT((20.,30.,0.));
#172=IFCDIRECTION((0.,0.,1.));
#173=IFCDIRECTION((1.,0.,0.));
#174=IFCAXIS2PLACEMENT3D(#171,#172,#173);
#175=IFCLOCALPLACEMENT($,#174);
#176=IFCCOLUMN('3zh1UXvTb2h9xySlNS$4G4',$,'CSG_Cylinder',$,$,#190,#185,$,$);
#177=IFCRELCONTAINEDINSPATIALSTRUCTURE('3jUNTVbBLB1PaxW5hAbq4m',$,$,$,(#176),#22);
#178=IFCCARTESIANPOINT((0.,0.,0.));
#179=IFCDIRECTION((0.,0.,1.));
#180=IFCDIRECTION((1.,0.,0.));
#181=IFCAXIS2PLACEMENT3D(#178,#179,#180);
#182=IFCRIGHTCIRCULARCYLINDER(#181,3.,0.4);
#183=IFCCSGSOLID(#182);
#184=IFCSHAPEREPRESENTATION(#12,'Body','CSG',(#183));
#185=IFCPRODUCTDEFINITIONSHAPE($,$,(#184));
#186=IFCCARTESIANPOINT((30.,30.,0.));
#187=IFCDIRECTION((0.,0.,1.));
#188=IFCDIRECTION((1.,0.,0.));
#189=IFCAXIS2PLACEMENT3D(#186,#187,#188);
#190=IFCLOCALPLACEMENT($,#189);
#191=IFCSLAB('2r6wIABWX7A8oYpnEFn6OM',$,'Clip_Single',$,$,$,#213,$,$);
#192=IFCRELCONTAINEDINSPATIALSTRUCTURE('3ELtYUWLLDR9qPcp$lj36k',$,$,$,(#191),#22);
#193=IFCCARTESIANPOINT((0.,0.,0.));
#194=IFCCARTESIANPOINT((4.,0.,0.));
#195=IFCCARTESIANPOINT((4.,0.2,0.));
#196=IFCCARTESIANPOINT((0.,0.2,0.));
#197=IFCPOLYLINE((#193,#194,#195,#196,#193));
#198=IFCARBITRARYCLOSEDPROFILEDEF(.AREA.,$,#197);
#199=IFCCARTESIANPOINT((0.,40.,0.));
#200=IFCDIRECTION((0.,0.,1.));
#201=IFCDIRECTION((1.,0.,0.));
#202=IFCAXIS2PLACEMENT3D(#199,#200,#201);
#203=IFCDIRECTION((0.,0.,1.));
#204=IFCEXTRUDEDAREASOLID(#198,#202,#203,2.8);
#205=IFCCARTESIANPOINT((2.,0.1,2.));
#206=IFCDIRECTION((0.,0.,1.));
#207=IFCDIRECTION((0.,-1.,0.));
#208=IFCAXIS2PLACEMENT3D(#205,#206,#207);
#209=IFCPLANE(#208);
#210=IFCHALFSPACESOLID(#209,.T.);
#211=IFCBOOLEANCLIPPINGRESULT(.DIFFERENCE.,#204,#210);
#212=IFCSHAPEREPRESENTATION(#12,'Body','Clipping',(#211));
#213=IFCPRODUCTDEFINITIONSHAPE($,$,(#212));
#214=IFCWALL('35JkE22CH2lwvH0LPRwern',$,'Clip_Double',$,$,$,#243,$,$);
#215=IFCRELCONTAINEDINSPATIALSTRUCTURE('2fc9Cmrg59R8zzudvC6c1l',$,$,$,(#214),#22);
#216=IFCCARTESIANPOINT((0.,0.,0.));
#217=IFCCARTESIANPOINT((6.,0.,0.));
#218=IFCCARTESIANPOINT((6.,0.3,0.));
#219=IFCCARTESIANPOINT((0.,0.3,0.));
#220=IFCPOLYLINE((#216,#217,#218,#219,#216));
#221=IFCARBITRARYCLOSEDPROFILEDEF(.AREA.,$,#220);
#222=IFCCARTESIANPOINT((10.,40.,0.));
#223=IFCDIRECTION((0.,0.,1.));
#224=IFCDIRECTION((1.,0.,0.));
#225=IFCAXIS2PLACEMENT3D(#222,#223,#224);
#226=IFCDIRECTION((0.,0.,1.));
#227=IFCEXTRUDEDAREASOLID(#221,#225,#226,3.);
#228=IFCCARTESIANPOINT((5.,0.15,0.5));
#229=IFCDIRECTION((0.,0.,-1.));
#230=IFCDIRECTION((0.,1.,0.));
#231=IFCAXIS2PLACEMENT3D(#228,#229,#230);
#232=IFCPLANE(#231);
#233=IFCHALFSPACESOLID(#232,.F.);
#234=IFCBOOLEANCLIPPINGRESULT(.DIFFERENCE.,#227,#233);
#235=IFCCARTESIANPOINT((1.,0.15,2.5));
#236=IFCDIRECTION((0.,0.,1.));
#237=IFCDIRECTION((0.,-1.,0.));
#238=IFCAXIS2PLACEMENT3D(#235,#236,#237);
#239=IFCPLANE(#238);
#240=IFCHALFSPACESOLID(#239,.T.);
#241=IFCBOOLEANCLIPPINGRESULT(.DIFFERENCE.,#234,#240);
#242=IFCSHAPEREPRESENTATION(#12,'Body','Clipping',(#241));
#243=IFCPRODUCTDEFINITIONSHAPE($,$,(#242));
#244=IFCWALL('0D86RoOL91NBNNi8z0O6Xn',$,'Bool_Diff',$,$,$,#272,$,$);
#245=IFCRELCONTAINEDINSPATIALSTRUCTURE('0NKF5dIqn0e8JyL9G$ME7k',$,$,$,(#244),#22);
#246=IFCCARTESIANPOINT((0.,0.,0.));
#247=IFCCARTESIANPOINT((6.,0.,0.));
#248=IFCCARTESIANPOINT((6.,0.3,0.));
#249=IFCCARTESIANPOINT((0.,0.3,0.));
#250=IFCPOLYLINE((#246,#247,#248,#249,#246));
#251=IFCARBITRARYCLOSEDPROFILEDEF(.AREA.,$,#250);
#252=IFCCARTESIANPOINT((0.,0.,0.));
#253=IFCDIRECTION((0.,0.,1.));
#254=IFCDIRECTION((1.,0.,0.));
#255=IFCAXIS2PLACEMENT3D(#252,#253,#254);
#256=IFCDIRECTION((0.,0.,1.));
#257=IFCEXTRUDEDAREASOLID(#251,#255,#256,3.);
#258=IFCCARTESIANPOINT((1.5,-0.05,0.8));
#259=IFCCARTESIANPOINT((3.5,-0.05,0.8));
#260=IFCCARTESIANPOINT((3.5,-0.05,2.4));
#261=IFCCARTESIANPOINT((1.5,-0.05,2.4));
#262=IFCPOLYLINE((#258,#259,#260,#261,#258));
#263=IFCARBITRARYCLOSEDPROFILEDEF(.AREA.,$,#262);
#264=IFCCARTESIANPOINT((0.,0.,0.));
#265=IFCDIRECTION((0.,0.,1.));
#266=IFCDIRECTION((1.,0.,0.));
#267=IFCAXIS2PLACEMENT3D(#264,#265,#266);
#268=IFCDIRECTION((0.,1.,0.));
#269=IFCEXTRUDEDAREASOLID(#263,#267,#268,0.4);
#270=IFCBOOLEANRESULT(.DIFFERENCE.,#257,#269);
#271=IFCSHAPEREPRESENTATION(#12,'Body','CSG',(#270));
#272=IFCPRODUCTDEFINITIONSHAPE($,$,(#271));
#273=IFCWALL('1ffO0EOPH1ewHDKagrNOtC',$,'Bool_Union',$,$,$,#301,$,$);
#274=IFCRELCONTAINEDINSPATIALSTRUCTURE('1fJ5mr57T5YOhIaEdpZeuv',$,$,$,(#273),#22);
#275=IFCCARTESIANPOINT((0.,0.,0.));
#276=IFCCARTESIANPOINT((4.,0.,0.));
#277=IFCCARTESIANPOINT((4.,0.3,0.));
#278=IFCCARTESIANPOINT((0.,0.3,0.));
#279=IFCPOLYLINE((#275,#276,#277,#278,#275));
#280=IFCARBITRARYCLOSEDPROFILEDEF(.AREA.,$,#279);
#281=IFCCARTESIANPOINT((0.,50.,0.));
#282=IFCDIRECTION((0.,0.,1.));
#283=IFCDIRECTION((1.,0.,0.));
#284=IFCAXIS2PLACEMENT3D(#281,#282,#283);
#285=IFCDIRECTION((0.,0.,1.));
#286=IFCEXTRUDEDAREASOLID(#280,#284,#285,3.);
#287=IFCCARTESIANPOINT((0.,0.,0.));
#288=IFCCARTESIANPOINT((0.3,0.,0.));
#289=IFCCARTESIANPOINT((0.3,3.,0.));
#290=IFCCARTESIANPOINT((0.,3.,0.));
#291=IFCPOLYLINE((#287,#288,#289,#290,#287));
#292=IFCARBITRARYCLOSEDPROFILEDEF(.AREA.,$,#291);
#293=IFCCARTESIANPOINT((0.,47.,0.));
#294=IFCDIRECTION((0.,0.,1.));
#295=IFCDIRECTION((1.,0.,0.));
#296=IFCAXIS2PLACEMENT3D(#293,#294,#295);
#297=IFCDIRECTION((0.,0.,1.));
#298=IFCEXTRUDEDAREASOLID(#292,#296,#297,3.);
#299=IFCBOOLEANRESULT(.UNION.,#286,#298);
#300=IFCSHAPEREPRESENTATION(#12,'Body','CSG',(#299));
#301=IFCPRODUCTDEFINITIONSHAPE($,$,(#300));
#302=IFCSLAB('0hGSb2r_TDJRO6GIzGdyPi',$,'Bool_Inter',$,$,$,#330,$,$);
#303=IFCRELCONTAINEDINSPATIALSTRUCTURE('1qDhx2O4540u8okoMu3viP',$,$,$,(#302),#22);
#304=IFCCARTESIANPOINT((0.,0.,0.));
#305=IFCCARTESIANPOINT((4.,0.,0.));
#306=IFCCARTESIANPOINT((4.,4.,0.));
#307=IFCCARTESIANPOINT((0.,4.,0.));
#308=IFCPOLYLINE((#304,#305,#306,#307,#304));
#309=IFCARBITRARYCLOSEDPROFILEDEF(.AREA.,$,#308);
#310=IFCCARTESIANPOINT((0.,60.,0.));
#311=IFCDIRECTION((0.,0.,1.));
#312=IFCDIRECTION((1.,0.,0.));
#313=IFCAXIS2PLACEMENT3D(#310,#311,#312);
#314=IFCDIRECTION((0.,0.,1.));
#315=IFCEXTRUDEDAREASOLID(#309,#313,#314,2.);
#316=IFCCARTESIANPOINT((1.,1.,0.));
#317=IFCCARTESIANPOINT((5.,1.,0.));
#318=IFCCARTESIANPOINT((5.,5.,0.));
#319=IFCCARTESIANPOINT((1.,5.,0.));
#320=IFCPOLYLINE((#316,#317,#318,#319,#316));
#321=IFCARBITRARYCLOSEDPROFILEDEF(.AREA.,$,#320);
#322=IFCCARTESIANPOINT((0.,60.,0.));
#323=IFCDIRECTION((0.,0.,1.));
#324=IFCDIRECTION((1.,0.,0.));
#325=IFCAXIS2PLACEMENT3D(#322,#323,#324);
#326=IFCDIRECTION((0.,0.,1.));
#327=IFCEXTRUDEDAREASOLID(#321,#325,#326,2.);
#328=IFCBOOLEANRESULT(.INTERSECTION.,#315,#327);
#329=IFCSHAPEREPRESENTATION(#12,'Body','CSG',(#328));
#330=IFCPRODUCTDEFINITIONSHAPE($,$,(#329));
#331=IFCWALL('0ppv_HjVzCqRf6F6RDpddU',$,'Bool_Nested',$,$,$,#366,$,$);
#332=IFCRELCONTAINEDINSPATIALSTRUCTURE('0EsCwVOVP6OfP9fErhz_b_',$,$,$,(#331),#22);
#333=IFCCARTESIANPOINT((0.,0.,0.));
#334=IFCCARTESIANPOINT((4.,0.,0.));
#335=IFCCARTESIANPOINT((4.,0.3,0.));
#336=IFCCARTESIANPOINT((0.,0.3,0.));
#337=IFCPOLYLINE((#333,#334,#335,#336,#333));
#338=IFCARBITRARYCLOSEDPROFILEDEF(.AREA.,$,#337);
#339=IFCCARTESIANPOINT((0.,70.,0.));
#340=IFCDIRECTION((0.,0.,1.));
#341=IFCDIRECTION((1.,0.,0.));
#342=IFCAXIS2PLACEMENT3D(#339,#340,#341);
#343=IFCDIRECTION((0.,0.,1.));
#344=IFCEXTRUDEDAREASOLID(#338,#342,#343,3.);
#345=IFCCARTESIANPOINT((0.,0.,0.));
#346=IFCCARTESIANPOINT((0.3,0.,0.));
#347=IFCCARTESIANPOINT((0.3,3.,0.));
#348=IFCCARTESIANPOINT((0.,3.,0.));
#349=IFCPOLYLINE((#345,#346,#347,#348,#345));
#350=IFCARBITRARYCLOSEDPROFILEDEF(.AREA.,$,#349);
#351=IFCCARTESIANPOINT((0.,67.,0.));
#352=IFCDIRECTION((0.,0.,1.));
#353=IFCDIRECTION((1.,0.,0.));
#354=IFCAXIS2PLACEMENT3D(#351,#352,#353);
#355=IFCDIRECTION((0.,0.,1.));
#356=IFCEXTRUDEDAREASOLID(#350,#354,#355,3.);
#357=IFCBOOLEANRESULT(.UNION.,#344,#356);
#358=IFCCARTESIANPOINT((2.,68.5,2.5));
#359=IFCDIRECTION((0.,0.,1.));
#360=IFCDIRECTION((0.,-1.,0.));
#361=IFCAXIS2PLACEMENT3D(#358,#359,#360);
#362=IFCPLANE(#361);
#363=IFCHALFSPACESOLID(#362,.T.);
#364=IFCBOOLEANRESULT(.DIFFERENCE.,#357,#363);
#365=IFCSHAPEREPRESENTATION(#12,'Body','CSG',(#364));
#366=IFCPRODUCTDEFINITIONSHAPE($,$,(#365));
#367=IFCSLAB('3xPGn_FCP41wzqbX$wlBJX',$,'Bool_HalfSpace',$,$,$,#389,$,$);
#368=IFCRELCONTAINEDINSPATIALSTRUCTURE('3yY8RIyYfEMhqjOMlaWSNS',$,$,$,(#367),#22);
#369=IFCCARTESIANPOINT((0.,0.,0.));
#370=IFCCARTESIANPOINT((5.,0.,0.));
#371=IFCCARTESIANPOINT((5.,5.,0.));
#372=IFCCARTESIANPOINT((0.,5.,0.));
#373=IFCPOLYLINE((#369,#370,#371,#372,#369));
#374=IFCARBITRARYCLOSEDPROFILEDEF(.AREA.,$,#373);
#375=IFCCARTESIANPOINT((20.,40.,0.));
#376=IFCDIRECTION((0.,0.,1.));
#377=IFCDIRECTION((1.,0.,0.));
#378=IFCAXIS2PLACEMENT3D(#375,#376,#377);
#379=IFCDIRECTION((0.,0.,1.));
#380=IFCEXTRUDEDAREASOLID(#374,#378,#379,0.3);
#381=IFCCARTESIANPOINT((2.5,2.5,0.15));
#382=IFCDIRECTION((0.707106781186548,0.,0.707106781186548));
#383=IFCDIRECTION((0.707106781186548,0.,-0.707106781186548));
#384=IFCAXIS2PLACEMENT3D(#381,#382,#383);
#385=IFCPLANE(#384);
#386=IFCHALFSPACESOLID(#385,.T.);
#387=IFCBOOLEANRESULT(.DIFFERENCE.,#380,#386);
#388=IFCSHAPEREPRESENTATION(#12,'Body','CSG',(#387));
#389=IFCPRODUCTDEFINITIONSHAPE($,$,(#388));
#390=IFCSLAB('1rmxPYjSTER8pVIbFzaqM8',$,'Mesh_Quad',$,$,#406,#401,$,$);
#391=IFCRELCONTAINEDINSPATIALSTRUCTURE('3cMCiSL5X1$vdW4eU_ijOK',$,$,$,(#390),#22);
#392=IFCINDEXEDPOLYGONALFACE((1,4,3,2));
#393=IFCINDEXEDPOLYGONALFACE((1,2,8,7));
#394=IFCINDEXEDPOLYGONALFACE((1,7,6,4));
#395=IFCINDEXEDPOLYGONALFACE((5,3,4,6));
#396=IFCINDEXEDPOLYGONALFACE((5,8,2,3));
#397=IFCINDEXEDPOLYGONALFACE((5,6,7,8));
#398=IFCCARTESIANPOINTLIST3D(((-1.15470053837925,-1.15470053837925,-1.15470053837925),(1.15470053837925,-1.15470053837925,-1.15470053837925),(1.15470053837925,1.15470053837925,-1.15470053837925),(-1.15470053837925,1.15470053837925,-1.15470053837925),(1.15470053837925,1.15470053837925,1.15470053837925),(-1.15470053837925,1.15470053837925,1.15470053837925),(-1.15470053837925,-1.15470053837925,1.15470053837925),(1.15470053837925,-1.15470053837925,1.15470053837925)));
#399=IFCPOLYGONALFACESET(#398,.T.,(#392,#393,#394,#395,#396,#397),$);
#400=IFCSHAPEREPRESENTATION(#12,'Body','Tessellation',(#399));
#401=IFCPRODUCTDEFINITIONSHAPE($,$,(#400));
#402=IFCCARTESIANPOINT((0.,80.,0.));
#403=IFCDIRECTION((0.,0.,1.));
#404=IFCDIRECTION((1.,0.,0.));
#405=IFCAXIS2PLACEMENT3D(#402,#403,#404);
#406=IFCLOCALPLACEMENT($,#405);
#407=IFCCOLUMN('0CMkzhIL57IPQR9OcyVThN',$,'Instance_1',$,$,#421,#416,$,$);
#408=IFCRELCONTAINEDINSPATIALSTRUCTURE('3n47ATooX2TxmzFi7W0Hb9',$,$,$,(#407),#22);
#409=IFCCARTESIANPOINT((0.,0.,0.));
#410=IFCDIRECTION((0.,0.,1.));
#411=IFCDIRECTION((1.,0.,0.));
#412=IFCAXIS2PLACEMENT3D(#409,#410,#411);
#413=IFCRIGHTCIRCULARCYLINDER(#412,3.5,0.2);
#414=IFCCSGSOLID(#413);
#415=IFCSHAPEREPRESENTATION(#12,'Body','CSG',(#414));
#416=IFCPRODUCTDEFINITIONSHAPE($,$,(#415));
#417=IFCCARTESIANPOINT((0.,90.,0.));
#418=IFCDIRECTION((0.,0.,1.));
#419=IFCDIRECTION((1.,0.,0.));
#420=IFCAXIS2PLACEMENT3D(#417,#418,#419);
#421=IFCLOCALPLACEMENT($,#420);
#422=IFCCOLUMN('0_rOALf_DB5RzWMKZHWr5x',$,'Instance_2',$,$,#441,#436,$,$);
#423=IFCRELCONTAINEDINSPATIALSTRUCTURE('0_K3XYAxrFwO6GnwoviOWN',$,$,$,(#422),#22);
#424=IFCCARTESIANPOINT((0.,0.,0.));
#425=IFCDIRECTION((0.,0.,1.));
#426=IFCDIRECTION((1.,0.,0.));
#427=IFCAXIS2PLACEMENT3D(#424,#425,#426);
#428=IFCREPRESENTATIONMAP(#427,#415);
#429=IFCDIRECTION((1.,0.,0.));
#430=IFCDIRECTION((0.,1.,0.));
#431=IFCCARTESIANPOINT((0.,0.,0.));
#432=IFCDIRECTION((0.,0.,1.));
#433=IFCCARTESIANTRANSFORMATIONOPERATOR3D(#429,#430,#431,1.,#432);
#434=IFCMAPPEDITEM(#428,#433);
#435=IFCSHAPEREPRESENTATION(#12,'Body','MappedRepresentation',(#434));
#436=IFCPRODUCTDEFINITIONSHAPE($,$,(#435));
#437=IFCCARTESIANPOINT((3.,90.,0.));
#438=IFCDIRECTION((0.,0.,1.));
#439=IFCDIRECTION((1.,0.,0.));
#440=IFCAXIS2PLACEMENT3D(#437,#438,#439);
#441=IFCLOCALPLACEMENT($,#440);
#442=IFCCOLUMN('3LG9EkFCDAlefqcxOUsFAs',$,'Instance_3',$,$,#456,#451,$,$);
#443=IFCRELCONTAINEDINSPATIALSTRUCTURE('3y3tJiZST2CfidUBPhcc1q',$,$,$,(#442),#22);
#444=IFCDIRECTION((1.,0.,0.));
#445=IFCDIRECTION((0.,1.,0.));
#446=IFCCARTESIANPOINT((0.,0.,0.));
#447=IFCDIRECTION((0.,0.,1.));
#448=IFCCARTESIANTRANSFORMATIONOPERATOR3D(#444,#445,#446,1.,#447);
#449=IFCMAPPEDITEM(#428,#448);
#450=IFCSHAPEREPRESENTATION(#12,'Body','MappedRepresentation',(#449));
#451=IFCPRODUCTDEFINITIONSHAPE($,$,(#450));
#452=IFCCARTESIANPOINT((6.,90.,0.));
#453=IFCDIRECTION((0.,0.,1.));
#454=IFCDIRECTION((1.,0.,0.));
#455=IFCAXIS2PLACEMENT3D(#452,#453,#454);
#456=IFCLOCALPLACEMENT($,#455);
ENDSEC;
END-ISO-10303-21;
